<?xml version="1.0" encoding="iso-8859-1"?>
<!-- Uploaded to: SVG Repo, www.svgrepo.com, Generator: SVG Repo Mixer Tools -->
<svg fill="#000000" height="800px" width="800px" version="1.1" id="Layer_1" xmlns="http://www.w3.org/2000/svg" xmlns:xlink="http://www.w3.org/1999/xlink" 
	 viewBox="0 0 512 512" xml:space="preserve">
<g>
	<g>
		<path d="M486.881,196.676H25.119C11.268,196.676,0,207.945,0,221.795v68.409c0,13.851,11.268,25.119,25.119,25.119h410.454
			c4.428,0,8.017-3.589,8.017-8.017s-3.588-8.017-8.017-8.017H118.647v-86.58h368.234c5.01,0,9.086,4.076,9.086,9.086v68.409
			c0,5.01-4.076,9.086-9.086,9.086h-17.103c-4.428,0-8.017,3.589-8.017,8.017s3.588,8.017,8.017,8.017h17.103
			c13.851,0,25.119-11.268,25.119-25.119v-68.409C512,207.945,500.732,196.676,486.881,196.676z M102.614,299.29H25.119
			c-5.01,0-9.086-4.076-9.086-9.086v-68.409c0-5.01,4.076-9.086,9.086-9.086h77.495V299.29z"/>
	</g>
</g>
<g>
	<g>
		<path d="M452.676,239.432c-4.428,0-8.017,3.589-8.017,8.017v17.102c0,4.427,3.588,8.017,8.017,8.017
			c4.428,0,8.017-3.589,8.017-8.017v-17.102C460.693,243.021,457.105,239.432,452.676,239.432z"/>
	</g>
</g>
<g>
	<g>
		<path d="M384.267,239.432c-4.428,0-8.017,3.589-8.017,8.017v17.102c0,4.427,3.588,8.017,8.017,8.017
			c4.428,0,8.017-3.589,8.017-8.017v-17.102C392.284,243.021,388.696,239.432,384.267,239.432z"/>
	</g>
</g>
<g>
	<g>
		<path d="M418.472,239.432c-4.428,0-8.017,3.589-8.017,8.017v17.102c0,4.427,3.588,8.017,8.017,8.017
			c4.428,0,8.017-3.589,8.017-8.017v-17.102C426.489,243.021,422.9,239.432,418.472,239.432z"/>
	</g>
</g>
<g>
	<g>
		<path d="M350.063,239.432c-4.428,0-8.017,3.589-8.017,8.017v17.102c0,4.427,3.588,8.017,8.017,8.017
			c4.428,0,8.017-3.589,8.017-8.017v-17.102C358.079,243.021,354.491,239.432,350.063,239.432z"/>
	</g>
</g>
<g>
	<g>
		<path d="M76.426,247.983c-4.428,0-8.017,3.589-8.017,8.017c0,5.01-4.076,9.086-9.086,9.086c-5.01,0-9.086-4.076-9.086-9.086
			s4.076-9.086,9.086-9.086c4.428,0,8.017-3.589,8.017-8.017s-3.588-8.017-8.017-8.017c-13.851,0-25.119,11.268-25.119,25.119
			s11.268,25.119,25.119,25.119c13.851,0,25.119-11.268,25.119-25.119C84.443,251.573,80.854,247.983,76.426,247.983z"/>
	</g>
</g>
<g>
	<g>
		<path d="M486.881,59.858H25.119C11.268,59.858,0,71.126,0,84.977v68.409c0,13.851,11.268,25.119,25.119,25.119h410.454
			c4.428,0,8.017-3.589,8.017-8.017s-3.588-8.017-8.017-8.017H118.647v-86.58h368.234c5.01,0,9.086,4.076,9.086,9.086v68.409
			c0,5.01-4.076,9.086-9.086,9.086h-17.103c-4.428,0-8.017,3.589-8.017,8.017s3.588,8.017,8.017,8.017h17.103
			c13.851,0,25.119-11.268,25.119-25.119V84.977C512,71.126,500.732,59.858,486.881,59.858z M102.614,162.472H25.119
			c-5.01,0-9.086-4.076-9.086-9.086V84.977c0-5.01,4.076-9.086,9.086-9.086h77.495V162.472z"/>
	</g>
</g>
<g>
	<g>
		<path d="M452.676,102.614c-4.428,0-8.017,3.589-8.017,8.017v17.102c0,4.427,3.588,8.017,8.017,8.017
			c4.428,0,8.017-3.589,8.017-8.017V110.63C460.693,106.203,457.105,102.614,452.676,102.614z"/>
	</g>
</g>
<g>
	<g>
		<path d="M384.267,102.614c-4.428,0-8.017,3.589-8.017,8.017v17.102c0,4.427,3.588,8.017,8.017,8.017
			c4.428,0,8.017-3.589,8.017-8.017V110.63C392.284,106.203,388.696,102.614,384.267,102.614z"/>
	</g>
</g>
<g>
	<g>
		<path d="M418.472,102.614c-4.428,0-8.017,3.589-8.017,8.017v17.102c0,4.427,3.588,8.017,8.017,8.017
			c4.428,0,8.017-3.589,8.017-8.017V110.63C426.489,106.203,422.9,102.614,418.472,102.614z"/>
	</g>
</g>
<g>
	<g>
		<path d="M350.063,102.614c-4.428,0-8.017,3.589-8.017,8.017v17.102c0,4.427,3.588,8.017,8.017,8.017
			c4.428,0,8.017-3.589,8.017-8.017V110.63C358.079,106.203,354.491,102.614,350.063,102.614z"/>
	</g>
</g>
<g>
	<g>
		<path d="M76.426,111.165c-4.428,0-8.017,3.589-8.017,8.017c0,5.01-4.076,9.086-9.086,9.086c-5.01,0-9.086-4.076-9.086-9.086
			s4.076-9.086,9.086-9.086c4.428,0,8.017-3.589,8.017-8.017s-3.588-8.017-8.017-8.017c-13.851,0-25.119,11.268-25.119,25.119
			s11.268,25.119,25.119,25.119c13.851,0,25.119-11.268,25.119-25.119C84.443,114.754,80.854,111.165,76.426,111.165z"/>
	</g>
</g>
<g>
	<g>
		<path d="M486.881,333.495H25.119C11.268,333.495,0,344.763,0,358.614v68.409c0,13.851,11.268,25.119,25.119,25.119h410.454
			c4.428,0,8.017-3.589,8.017-8.017c0-4.427-3.588-8.017-8.017-8.017H118.647v-86.58h368.234c5.01,0,9.086,4.076,9.086,9.086v68.409
			c0,5.01-4.076,9.086-9.086,9.086h-17.103c-4.428,0-8.017,3.589-8.017,8.017c0,4.427,3.588,8.017,8.017,8.017h17.103
			c13.851,0,25.119-11.268,25.119-25.119v-68.409C512,344.763,500.732,333.495,486.881,333.495z M102.614,436.109H25.119
			c-5.01,0-9.086-4.076-9.086-9.086v-68.409c0-5.01,4.076-9.086,9.086-9.086h77.495V436.109z"/>
	</g>
</g>
<g>
	<g>
		<path d="M452.676,376.251c-4.428,0-8.017,3.589-8.017,8.017v17.102c0,4.427,3.588,8.017,8.017,8.017
			c4.428,0,8.017-3.589,8.017-8.017v-17.102C460.693,379.84,457.105,376.251,452.676,376.251z"/>
	</g>
</g>
<g>
	<g>
		<path d="M384.267,376.251c-4.428,0-8.017,3.589-8.017,8.017v17.102c0,4.427,3.588,8.017,8.017,8.017
			c4.428,0,8.017-3.589,8.017-8.017v-17.102C392.284,379.84,388.696,376.251,384.267,376.251z"/>
	</g>
</g>
<g>
	<g>
		<path d="M418.472,376.251c-4.428,0-8.017,3.589-8.017,8.017v17.102c0,4.427,3.588,8.017,8.017,8.017
			c4.428,0,8.017-3.589,8.017-8.017v-17.102C426.489,379.84,422.9,376.251,418.472,376.251z"/>
	</g>
</g>
<g>
	<g>
		<path d="M350.063,376.251c-4.428,0-8.017,3.589-8.017,8.017v17.102c0,4.427,3.588,8.017,8.017,8.017
			c4.428,0,8.017-3.589,8.017-8.017v-17.102C358.079,379.84,354.491,376.251,350.063,376.251z"/>
	</g>
</g>
<g>
	<g>
		<path d="M161.937,239.432c-4.428,0-8.017,3.589-8.017,8.017v17.102c0,4.427,3.588,8.017,8.017,8.017
			c4.428,0,8.017-3.589,8.017-8.017v-17.102C169.954,243.021,166.366,239.432,161.937,239.432z"/>
	</g>
</g>
<g>
	<g>
		<path d="M161.937,102.614c-4.428,0-8.017,3.589-8.017,8.017v17.102c0,4.427,3.588,8.017,8.017,8.017
			c4.428,0,8.017-3.589,8.017-8.017V110.63C169.954,106.203,166.366,102.614,161.937,102.614z"/>
	</g>
</g>
<g>
	<g>
		<path d="M161.937,376.251c-4.428,0-8.017,3.589-8.017,8.017v17.102c0,4.427,3.588,8.017,8.017,8.017
			c4.428,0,8.017-3.589,8.017-8.017v-17.102C169.954,379.84,166.366,376.251,161.937,376.251z"/>
	</g>
</g>
<g>
	<g>
		<path d="M76.426,384.802c-4.428,0-8.017,3.589-8.017,8.017c0,5.01-4.076,9.086-9.086,9.086c-5.01,0-9.086-4.076-9.086-9.086
			c0-5.01,4.076-9.086,9.086-9.086c4.428,0,8.017-3.589,8.017-8.017c0-4.427-3.588-8.017-8.017-8.017
			c-13.851,0-25.119,11.268-25.119,25.119c0,13.851,11.268,25.119,25.119,25.119c13.851,0,25.119-11.268,25.119-25.119
			C84.443,388.391,80.854,384.802,76.426,384.802z"/>
	</g>
</g>
</svg>