<svg viewBox="0 100 1000 600" id="maingraph"><g id="polygon2"></g><g id="edge"><path id="e2" class="ude" d="M489.1648763955473,27.291039159793154L285.83512360445275,56.708960840206835" stroke="#333" stroke-width="3"></path><path id="e3" class="ude" d="M520.8351236044526,27.291039159793154L724.1648763955473,56.708960840206835" stroke="#333" stroke-width="3"></path><path id="e4" class="ude" d="M254.63051215630833,63.447341163280996L167.8694878436917,88.55265883671899" stroke="#333" stroke-width="3"></path><path id="e5" class="ude" d="M285.3694878436917,63.447341163280996L372.1305121563083,88.55265883671899" stroke="#333" stroke-width="3"></path><path id="e6" class="ude" d="M724.6305121563083,63.447341163280996L637.8694878436917,88.55265883671899" stroke="#333" stroke-width="3"></path><path id="e7" class="ude" d="M755.3694878436917,63.447341163280996L842.1305121563083,88.55265883671899" stroke="#333" stroke-width="3"></path><path id="e8" class="ude" d="M138.65183478899303,101.01425731360405L107.59816521100699,118.98574268639595" stroke="#333" stroke-width="3"></path><path id="e9" class="ude" d="M166.34816521100697,101.01425731360405L197.40183478899303,118.98574268639595" stroke="#333" stroke-width="3"></path><path id="e10" class="ude" d="M373.651834788993,101.01425731360405L342.598165211007,118.98574268639595" stroke="#333" stroke-width="3"></path><path id="e11" class="ude" d="M401.348165211007,101.01425731360405L432.401834788993,118.98574268639595" stroke="#333" stroke-width="3"></path><path id="e12" class="ude" d="M608.651834788993,101.01425731360405L577.598165211007,118.98574268639595" stroke="#333" stroke-width="3"></path><path id="e13" class="ude" d="M636.348165211007,101.01425731360405L667.401834788993,118.98574268639595" stroke="#333" stroke-width="3"></path><path id="e14" class="ude" d="M843.651834788993,101.01425731360405L812.598165211007,118.98574268639595" stroke="#333" stroke-width="3"></path></g><g id="vertex"><circle class="v1" cx="505" cy="25" x="489" y="9" fill="#333" r="16" stroke="#333" stroke-width="2" height="32" width="32"></circle><circle class="v1" cx="505" cy="25" x="490" y="10" fill="#eee" r="14" width="30" height="30" stroke="#fff" stroke-width="0"></circle><circle class="v2" cx="270" cy="59" x="254" y="43" fill="#333" r="16" stroke="#333" stroke-width="2" height="32" width="32"></circle><circle class="v2" cx="270" cy="59" x="255" y="44" fill="#eee" r="14" width="30" height="30" stroke="#fff" stroke-width="0"></circle><circle class="v3" cx="740" cy="59" x="724" y="43" fill="#333" r="16" stroke="#333" stroke-width="2" height="32" width="32"></circle><circle class="v3" cx="740" cy="59" x="725" y="44" fill="#eee" r="14" width="30" height="30" stroke="#fff" stroke-width="0"></circle><circle class="v4" cx="152.5" cy="93" x="136.5" y="77" fill="#333" r="16" stroke="#333" stroke-width="2" height="32" width="32"></circle><circle class="v4" cx="152.5" cy="93" x="137.5" y="78" fill="#eee" r="14" width="30" height="30" stroke="#fff" stroke-width="0"></circle><circle class="v5" cx="387.5" cy="93" x="371.5" y="77" fill="#333" r="16" stroke="#333" stroke-width="2" height="32" width="32"></circle><circle class="v5" cx="387.5" cy="93" x="372.5" y="78" fill="#eee" r="14" width="30" height="30" stroke="#fff" stroke-width="0"></circle><circle class="v6" cx="622.5" cy="93" x="606.5" y="77" fill="#333" r="16" stroke="#333" stroke-width="2" height="32" width="32"></circle><circle class="v6" cx="622.5" cy="93" x="607.5" y="78" fill="#eee" r="14" width="30" height="30" stroke="#fff" stroke-width="0"></circle><circle class="v7" cx="857.5" cy="93" x="841.5" y="77" fill="#333" r="16" stroke="#333" stroke-width="2" height="32" width="32"></circle><circle class="v7" cx="857.5" cy="93" x="842.5" y="78" fill="#eee" r="14" width="30" height="30" stroke="#fff" stroke-width="0"></circle><circle class="v8" cx="93.75" cy="127" x="77.75" y="111" fill="#333" r="16" stroke="#333" stroke-width="2" height="32" width="32"></circle><circle class="v8" cx="93.75" cy="127" x="78.75" y="112" fill="#eee" r="14" width="30" height="30" stroke="#fff" stroke-width="0"></circle><circle class="v9" cx="211.25" cy="127" x="195.25" y="111" fill="#333" r="16" stroke="#333" stroke-width="2" height="32" width="32"></circle><circle class="v9" cx="211.25" cy="127" x="196.25" y="112" fill="#eee" r="14" width="30" height="30" stroke="#fff" stroke-width="0"></circle><circle class="v10" cx="328.75" cy="127" x="312.75" y="111" fill="#333" r="16" stroke="#333" stroke-width="2" height="32" width="32"></circle><circle class="v10" cx="328.75" cy="127" x="313.75" y="112" fill="#eee" r="14" width="30" height="30" stroke="#fff" stroke-width="0"></circle><circle class="v11" cx="446.25" cy="127" x="430.25" y="111" fill="#333" r="16" stroke="#333" stroke-width="2" height="32" width="32"></circle><circle class="v11" cx="446.25" cy="127" x="431.25" y="112" fill="#eee" r="14" width="30" height="30" stroke="#fff" stroke-width="0"></circle><circle class="v12" cx="563.75" cy="127" x="547.75" y="111" fill="#333" r="16" stroke="#333" stroke-width="2" height="32" width="32"></circle><circle class="v12" cx="563.75" cy="127" x="548.75" y="112" fill="#eee" r="14" width="30" height="30" stroke="#fff" stroke-width="0"></circle><circle class="v13" cx="681.25" cy="127" x="665.25" y="111" fill="#333" r="16" stroke="#333" stroke-width="2" height="32" width="32"></circle><circle class="v13" cx="681.25" cy="127" x="666.25" y="112" fill="#eee" r="14" width="30" height="30" stroke="#fff" stroke-width="0"></circle><circle class="v14" cx="798.75" cy="127" x="782.75" y="111" fill="#333" r="16" stroke="#333" stroke-width="2" height="32" width="32"></circle><circle class="v14" cx="798.75" cy="127" x="783.75" y="112" fill="#eee" r="14" width="30" height="30" stroke="#fff" stroke-width="0"></circle></g><g id="vertexText"><text class="v1" x="505" y="30.333333333333332" fill="#333" font-family="'PT Sans', sans-serif" font-size="16" font-weight="bold" text-anchor="middle">98</text><text class="v1" x="505" y="56.33333333333333" fill="red" font-family="'PT Sans', sans-serif" font-size="16" font-weight="bold" text-anchor="middle">1</text><text class="v2" x="270" y="64.33333333333333" fill="#333" font-family="'PT Sans', sans-serif" font-size="16" font-weight="bold" text-anchor="middle">78</text><text class="v2" x="270" y="90.33333333333333" fill="red" font-family="'PT Sans', sans-serif" font-size="16" font-weight="bold" text-anchor="middle">2</text><text class="v3" x="740" y="64.33333333333333" fill="#333" font-family="'PT Sans', sans-serif" font-size="16" font-weight="bold" text-anchor="middle">70</text><text class="v3" x="740" y="90.33333333333333" fill="red" font-family="'PT Sans', sans-serif" font-size="16" font-weight="bold" text-anchor="middle">3</text><text class="v4" x="152.5" y="98.33333333333333" fill="#333" font-family="'PT Sans', sans-serif" font-size="16" font-weight="bold" text-anchor="middle">50</text><text class="v4" x="152.5" y="124.33333333333333" fill="red" font-family="'PT Sans', sans-serif" font-size="16" font-weight="bold" text-anchor="middle">4</text><text class="v5" x="387.5" y="98.33333333333333" fill="#333" font-family="'PT Sans', sans-serif" font-size="16" font-weight="bold" text-anchor="middle">49</text><text class="v5" x="387.5" y="124.33333333333333" fill="red" font-family="'PT Sans', sans-serif" font-size="16" font-weight="bold" text-anchor="middle">5</text><text class="v6" x="622.5" y="98.33333333333333" fill="#333" font-family="'PT Sans', sans-serif" font-size="16" font-weight="bold" text-anchor="middle">55</text><text class="v6" x="622.5" y="124.33333333333333" fill="red" font-family="'PT Sans', sans-serif" font-size="16" font-weight="bold" text-anchor="middle">6</text><text class="v7" x="857.5" y="98.33333333333333" fill="#333" font-family="'PT Sans', sans-serif" font-size="16" font-weight="bold" text-anchor="middle">52</text><text class="v7" x="857.5" y="124.33333333333333" fill="red" font-family="'PT Sans', sans-serif" font-size="16" font-weight="bold" text-anchor="middle">7</text><text class="v8" x="93.75" y="132.33333333333334" fill="#333" font-family="'PT Sans', sans-serif" font-size="16" font-weight="bold" text-anchor="middle">30</text><text class="v8" x="93.75" y="158.33333333333334" fill="red" font-family="'PT Sans', sans-serif" font-size="16" font-weight="bold" text-anchor="middle">8</text><text class="v9" x="211.25" y="132.33333333333334" fill="#333" font-family="'PT Sans', sans-serif" font-size="16" font-weight="bold" text-anchor="middle">21</text><text class="v9" x="211.25" y="158.33333333333334" fill="red" font-family="'PT Sans', sans-serif" font-size="16" font-weight="bold" text-anchor="middle">9</text><text class="v10" x="328.75" y="132.33333333333334" fill="#333" font-family="'PT Sans', sans-serif" font-size="16" font-weight="bold" text-anchor="middle">37</text><text class="v10" x="328.75" y="158.33333333333334" fill="red" font-family="'PT Sans', sans-serif" font-size="16" font-weight="bold" text-anchor="middle">10</text><text class="v11" x="446.25" y="132.33333333333334" fill="#333" font-family="'PT Sans', sans-serif" font-size="16" font-weight="bold" text-anchor="middle">33</text><text class="v11" x="446.25" y="158.33333333333334" fill="red" font-family="'PT Sans', sans-serif" font-size="16" font-weight="bold" text-anchor="middle">11</text><text class="v12" x="563.75" y="132.33333333333334" fill="#333" font-family="'PT Sans', sans-serif" font-size="16" font-weight="bold" text-anchor="middle">26</text><text class="v12" x="563.75" y="158.33333333333334" fill="red" font-family="'PT Sans', sans-serif" font-size="16" font-weight="bold" text-anchor="middle">12</text><text class="v13" x="681.25" y="132.33333333333334" fill="#333" font-family="'PT Sans', sans-serif" font-size="16" font-weight="bold" text-anchor="middle">22</text><text class="v13" x="681.25" y="158.33333333333334" fill="red" font-family="'PT Sans', sans-serif" font-size="16" font-weight="bold" text-anchor="middle">13</text><text class="v14" x="798.75" y="132.33333333333334" fill="#333" font-family="'PT Sans', sans-serif" font-size="16" font-weight="bold" text-anchor="middle">24</text><text class="v14" x="798.75" y="158.33333333333334" fill="red" font-family="'PT Sans', sans-serif" font-size="16" font-weight="bold" text-anchor="middle">14</text></g><g id="edgeWeight"><text id="ew2" fill="#333" font-family="'PT Sans', sans-serif" font-size="0" font-weight="bold" text-anchor="middle" transform="translate(663.5147199390487,156.3562924573542),rotate(-171.76751708984375),scale(0.9999999999999999,0.9999999999999999)"><textPath xlink:href="#e2" startOffset="75%"><tspan dy="-5">1</tspan></textPath></text><text id="ew3" fill="#333" font-family="'PT Sans', sans-serif" font-size="0" font-weight="bold" text-anchor="middle" transform="translate(0.5874233796189401,96.97455034652944),rotate(-8.232477188110352)"><textPath xlink:href="#e3" startOffset="75%"><tspan dy="-5">1</tspan></textPath></text><text id="ew4" fill="#333" font-family="'PT Sans', sans-serif" font-size="0" font-weight="bold" text-anchor="middle" transform="translate(350.1698849909784,223.80314223985584),rotate(-163.86158752441406)"><textPath xlink:href="#e4" startOffset="75%"><tspan dy="-5">1</tspan></textPath></text><text id="ew5" fill="#333" font-family="'PT Sans', sans-serif" font-size="0" font-weight="bold" text-anchor="middle" transform="translate(-7.669835573619935,100.84725716086051),rotate(-16.138418197631836)"><textPath xlink:href="#e5" startOffset="75%"><tspan dy="-5">1</tspan></textPath></text><text id="ew6" fill="#333" font-family="'PT Sans', sans-serif" font-size="0" font-weight="bold" text-anchor="middle" transform="translate(1271.6485743828002,354.4437366343426),rotate(-163.86158752441406)"><textPath xlink:href="#e6" startOffset="75%"><tspan dy="-5">1</tspan></textPath></text><text id="ew7" fill="#333" font-family="'PT Sans', sans-serif" font-size="0" font-weight="bold" text-anchor="middle" transform="translate(10.851459367777352,231.4879093678108),rotate(-16.138418197631836)"><textPath xlink:href="#e7" startOffset="75%"><tspan dy="-5">1</tspan></textPath></text><text id="ew8" fill="#333" font-family="'PT Sans', sans-serif" font-size="0" font-weight="bold" text-anchor="middle" transform="translate(160.36420601259272,280.6987682670408),rotate(-149.94102478027344),skewX(3.1805546814635176e-15),scale(0.9999999999999999,0.9999999999999999)"><textPath xlink:href="#e8" startOffset="75%"><tspan dy="-5">1</tspan></textPath></text><text id="ew9" fill="#333" font-family="'PT Sans', sans-serif" font-size="0" font-weight="bold" text-anchor="middle" transform="translate(-29.339595271065065,111.0587486571354),rotate(-30.05897140502929)"><textPath xlink:href="#e9" startOffset="75%"><tspan dy="-5">1</tspan></textPath></text><text id="ew10" fill="#333" font-family="'PT Sans', sans-serif" font-size="0" font-weight="bold" text-anchor="middle" transform="translate(598.7591097478082,398.40818354537373),rotate(-149.94102478027344),skewX(3.1805546814635176e-15),scale(0.9999999999999999,0.9999999999999999)"><textPath xlink:href="#e10" startOffset="75%"><tspan dy="-5">1</tspan></textPath></text><text id="ew11" fill="#333" font-family="'PT Sans', sans-serif" font-size="0" font-weight="bold" text-anchor="middle" transform="translate(2.265480976176832,228.76816185811987),rotate(-30.05897140502929)"><textPath xlink:href="#e11" startOffset="75%"><tspan dy="-5">1</tspan></textPath></text><text id="ew12" fill="#333" font-family="'PT Sans', sans-serif" font-size="0" font-weight="bold" text-anchor="middle" transform="translate(1037.1540277157378,516.1176026452029),rotate(-149.94102478027344),skewX(3.1805546814635176e-15),scale(0.9999999999999999,0.9999999999999999)"><textPath xlink:href="#e12" startOffset="75%"><tspan dy="-5">1</tspan></textPath></text><text id="ew13" fill="#333" font-family="'PT Sans', sans-serif" font-size="0" font-weight="bold" text-anchor="middle" transform="translate(33.870555171269075,346.47756741611295),rotate(-30.05897140502929)"><textPath xlink:href="#e13" startOffset="75%"><tspan dy="-5">1</tspan></textPath></text><text id="ew14" fill="#333" font-family="'PT Sans', sans-serif" font-size="0" font-weight="bold" text-anchor="middle" transform="translate(1475.5489456836672,633.827021745032),rotate(-149.94102478027344),skewX(3.1805546814635176e-15),scale(0.9999999999999999,0.9999999999999999)"><textPath xlink:href="#e14" startOffset="75%"><tspan dy="-5">1</tspan></textPath></text></g><g id="edgeWeightPath"></g><g id="marker"><marker id="arrow" viewBox="0 -5 10 10" refX="9" markerWidth="3" markerHeight="3" orient="auto"><path d="M0,-5 L10,0 L0,5" fill="#333"></path></marker><marker id="backwardArrow" viewBox="-10 -5 10 10" refX="-9" markerWidth="3" markerHeight="3" orient="auto"><path d="M0,-5 L-10,0 L0,5" fill="#333"></path></marker></g></svg>