<svg  viewBox="0 60 1000 200" >
<g id="circles" transform="translate(35,0)">
<g class="circle" transform="translate(380,110)">
<circle cx="0" cy="0" r="20.12461179749811" style="fill: rgb(214, 0, 50);"></circle>
<text x="0" y="21.12461179749811" dy="1em">4</text></g><g class="circle" transform="translate(95,110)"><circle cx="0" cy="0" r="12.727922061357857" style="fill: rgb(255, 204, 199);"></circle><text x="0" y="13.727922061357857" dy="1em">1</text></g><g class="circle" transform="translate(190,110)"><circle cx="0" cy="0" r="15.588457268119894" style="fill: rgb(248, 152, 146);"></circle><text x="0" y="16.588457268119896" dy="1em">2</text></g><g class="circle" transform="translate(285,110)"><circle cx="0" cy="0" r="18" style="fill: rgb(234, 96, 96);"></circle><text x="0" y="19" dy="1em">3</text></g><g class="circle" transform="translate(0,110)"><circle cx="0" cy="0" r="9" style="fill: rgb(255, 255, 255);"></circle><text x="0" y="10" dy="1em">0</text></g></g><g id="temp" transform="translate(35,110)"><g><circle cx="0" cy="-27" r="9"></circle><text x="0" y="-36" dy="-1em">0</text></g></g><g id="indicators" transform="translate(35,110)" class="hidden"><g class="indicator visible" transform="translate(0,0)"><path d="M0,0L3,-7L-3,-7,Z" transform="rotate(0)translate(0,-5)" style="fill: rgb(255, 255, 255); stroke: none;"></path></g><g class="indicator visible" transform="translate(95,0)"><path d="M0,0L3,-7L-3,-7,Z" transform="rotate(0)translate(0,-5)" style="fill: rgb(255, 255, 255); stroke: none;"></path></g></g><g id="traces2" transform="translate(35,0)"><g class="step"></g><g class="step"><path d="M0,110Q47.5,62.5,95,110" style="stroke: rgb(214, 0, 50);" stroke-dashoffset="0" stroke-dasharray="109.04035186767578 109.04035186767578"></path><path d="M95,110Q47.5,157.5,0,110" style="stroke: rgb(255, 204, 199);" stroke-dashoffset="0" stroke-dasharray="109.04041290283203 109.04041290283203"></path></g><g class="step"><path d="M95,110Q142.5,62.5,190,110" style="stroke: rgb(214, 0, 50);" stroke-dashoffset="0" stroke-dasharray="109.04042053222656 109.04042053222656"></path><path d="M190,110Q142.5,157.5,95,110" style="stroke: rgb(248, 152, 146);" stroke-dashoffset="0" stroke-dasharray="109.04044342041016 109.04044342041016"></path></g><g class="step"><path d="M190,110Q237.5,62.5,285,110" style="stroke: rgb(214, 0, 50);" stroke-dashoffset="0" stroke-dasharray="109.04043579101562 109.04043579101562"></path><path d="M285,110Q237.5,157.5,190,110" style="stroke: rgb(234, 96, 96);" stroke-dashoffset="0" stroke-dasharray="109.04048156738281 109.04048156738281"></path></g><g class="step"><path d="M285,110Q332.5,62.5,380,110" style="stroke: rgb(214, 0, 50);" stroke-dashoffset="0" stroke-dasharray="109.04056549072266 109.04056549072266"></path><path d="M380,110Q332.5,157.5,285,110" style="stroke: rgb(255, 255, 255);" stroke-dashoffset="0" stroke-dasharray="109.04054260253906 109.04054260253906"></path></g><g class="step"><path d="M190,110Q237.5,62.5,285,110" style="stroke: rgb(234, 96, 96);" stroke-dashoffset="0" stroke-dasharray="109.04043579101562 109.04043579101562"></path><path d="M285,110Q237.5,157.5,190,110" style="stroke: rgb(255, 255, 255);" stroke-dashoffset="0" stroke-dasharray="109.04048156738281 109.04048156738281"></path></g><g class="step"><path d="M95,110Q142.5,62.5,190,110" style="stroke: rgb(248, 152, 146);" stroke-dashoffset="0" stroke-dasharray="109.04042053222656 109.04042053222656"></path><path d="M190,110Q142.5,157.5,95,110" style="stroke: rgb(255, 255, 255);" stroke-dashoffset="0" stroke-dasharray="109.04044342041016 109.04044342041016"></path></g><g class="step"><path d="M0,110Q47.5,62.5,95,110" style="stroke: rgb(255, 204, 199);" stroke-dashoffset="0" stroke-dasharray="109.04035186767578 109.04035186767578"></path><path d="M95,110Q47.5,157.5,0,110" style="stroke: rgb(255, 255, 255);" stroke-dashoffset="0" stroke-dasharray="109.04041290283203 109.04041290283203"></path></g></g></svg>