<svg viewBox="0 0 1600 200"><g id="circles" transform="translate(35,0)">
<g class="circle" transform="translate(337.77777099609375,110)">
<circle cx="0" cy="0" r="18" style="fill: rgb(224, 59, 70);"></circle><text x="0" y="19" dy="1em">8</text></g><g class="circle" transform="translate(380,110)"><circle cx="0" cy="0" r="18.973665961010276" style="fill: rgb(214, 0, 50);"></circle><text x="0" y="19.973665961010276" dy="1em">9</text></g><g class="circle" transform="translate(0,110)"><circle cx="0" cy="0" r="6" style="fill: rgb(255, 255, 255);"></circle><text x="0" y="7" dy="1em">0</text></g><g class="circle" transform="translate(42.22222137451172,110)"><circle cx="0" cy="0" r="8.48528137423857" style="fill: rgb(255, 232, 230);"></circle><text x="0" y="9.48528137423857" dy="1em">1</text></g><g class="circle" transform="translate(253.3333282470703,110)"><circle cx="0" cy="0" r="15.874507866387544" style="fill: rgb(239, 116, 112);"></circle><text x="0" y="16.874507866387546" dy="1em">6</text></g><g class="circle" transform="translate(168.88888549804688,110)"><circle cx="0" cy="0" r="13.416407864998739" style="fill: rgb(250, 163, 158);"></circle><text x="0" y="14.416407864998739" dy="1em">4</text></g><g class="circle" transform="translate(126.66666412353516,110)"><circle cx="0" cy="0" r="12" style="fill: rgb(254, 186, 181);"></circle><text x="0" y="13" dy="1em">3</text></g><g class="circle" transform="translate(295.55555555555554,110)"><circle cx="0" cy="0" r="16.97056274847714" style="fill: rgb(232, 89, 91);"></circle><text x="0" y="17.97056274847714" dy="1em">7</text></g><g class="circle" transform="translate(211.11111450195312,110)"><circle cx="0" cy="0" r="14.696938456699067" style="fill: rgb(246, 140, 135);"></circle><text x="0" y="15.696938456699067" dy="1em">5</text></g><g class="circle" transform="translate(84.44444274902344,110)"><circle cx="0" cy="0" r="10.392304845413264" style="fill: rgb(255, 209, 205);"></circle><text x="0" y="11.392304845413264" dy="1em">2</text></g></g><g id="temp" transform="translate(35,110)"><g><circle cx="0" cy="-18" r="6"></circle><text x="0" y="-24" dy="-1em">0</text></g></g><g id="indicators" transform="translate(35,110)" class="hidden"><g class="indicator" transform="translate(-42.22222137451172,0)"><path d="M0,0L3,-7L-3,-7,Z" transform="rotate(0)translate(0,-5)" style="fill: rgb(255, 255, 255); stroke: none;"></path></g><g class="indicator visible" transform="translate(42.22222137451172,0)"><path d="M0,0L3,-7L-3,-7,Z" transform="rotate(0)translate(0,-5)" style="fill: rgb(255, 255, 255); stroke: none;"></path></g><g class="indicator visible" transform="translate(0,0)"><path d="M0,0L3,-7L-3,-7,Z" transform="rotate(0)translate(0,-5)" style="fill: rgb(255, 255, 255); stroke: none;"></path></g><g class="indicator" transform="translate(-42.22222222222222,0)"><path d="M0,0L3,-7L-3,-7,Z" transform="rotate(0)translate(0,-5)" style="fill: rgb(255, 255, 255); stroke: none;"></path></g><g class="indicator" transform="translate(-42.22222222222222,0)"><path d="M0,0L3,-7L-3,-7,Z" transform="rotate(0)translate(0,-5)" style="fill: rgb(255, 255, 255); stroke: none;"></path></g><g class="indicator" transform="translate(-42.22222222222222,0)"><path d="M0,0L3,-7L-3,-7,Z" transform="rotate(0)translate(0,-5)" style="fill: rgb(255, 255, 255); stroke: none;"></path></g></g><g id="traces2" transform="translate(35,0)"><g class="step"></g><g class="step"><path d="M126.66666666666666,110Q211.1111111111111,25.555555555555557,295.55555555555554,110" style="stroke: rgb(255, 232, 230);" stroke-dashoffset="0" stroke-dasharray="193.84963989257812 193.84963989257812"></path><path d="M295.55555555555554,110Q211.1111111111111,194.44444444444446,126.66666666666666,110" style="stroke: rgb(232, 89, 91);" stroke-dashoffset="0" stroke-dasharray="193.849609375 193.849609375"></path></g><g class="step"><path d="M84.44444444444444,110Q147.77777777777777,46.666666666666664,211.11111111111111,110" style="stroke: rgb(255, 255, 255);" stroke-dashoffset="0" stroke-dasharray="145.38729858398438 145.38729858398438"></path><path d="M211.11111111111111,110Q147.77777777777777,173.33333333333334,84.44444444444444,110" style="stroke: rgb(250, 163, 158);" stroke-dashoffset="0" stroke-dasharray="145.38731384277344 145.38731384277344"></path></g><g class="step"><path d="M0,110Q21.11111111111111,88.88888888888889,42.22222222222222,110" style="stroke: rgb(224, 59, 70);" stroke-dashoffset="0" stroke-dasharray="48.46242141723633 48.46242141723633"></path><path d="M42.22222222222222,110Q21.11111111111111,131.11111111111111,0,110" style="stroke: rgb(214, 0, 50);" stroke-dashoffset="0" stroke-dasharray="48.46244430541992 48.46244430541992"></path></g><g class="step"><path d="M380,110Q190,300,0,110" style="stroke: rgb(255, 209, 205);" stroke-dashoffset="0" stroke-dasharray="436.1619567871094 436.1619567871094"></path><path d="M0,110Q190,-80,380,110" style="stroke: rgb(214, 0, 50);" stroke-dashoffset="0" stroke-dasharray="436.1618957519531 436.1618957519531"></path></g><g class="step"><path d="M0,110Q21.11111111111111,88.88888888888889,42.22222222222222,110" style="stroke: rgb(255, 209, 205);" stroke-dashoffset="0" stroke-dasharray="48.46242141723633 48.46242141723633"></path><path d="M42.22222222222222,110Q21.11111111111111,131.11111111111111,0,110" style="stroke: rgb(224, 59, 70);" stroke-dashoffset="0" stroke-dasharray="48.46244430541992 48.46244430541992"></path></g><g class="step"><path d="M42.22222222222222,110Q84.44444444444443,67.77777777777779,126.66666666666666,110" style="stroke: rgb(255, 209, 205);" stroke-dashoffset="0" stroke-dasharray="96.92481994628906 96.92481994628906"></path><path d="M126.66666666666666,110Q84.44444444444444,152.22222222222223,42.22222222222222,110" style="stroke: rgb(232, 89, 91);" stroke-dashoffset="0" stroke-dasharray="96.92485046386719 96.92485046386719"></path></g><g class="step"><path d="M126.66666666666666,110Q232.22222222222223,4.444444444444443,337.77777777777777,110" style="stroke: rgb(255, 209, 205);" stroke-dashoffset="0" stroke-dasharray="242.3121795654297 242.3121795654297"></path><path d="M337.77777777777777,110Q232.22222222222223,215.55555555555554,126.66666666666666,110" style="stroke: rgb(246, 140, 135);" stroke-dashoffset="0" stroke-dasharray="242.3121337890625 242.3121337890625"></path></g><g class="step"><path d="M337.77777777777777,110Q168.88888888888889,278.8888888888889,0,110" style="stroke: rgb(255, 209, 205);" stroke-dashoffset="0" stroke-dasharray="387.6993408203125 387.6993408203125"></path><path d="M0,110Q168.88888888888889,-58.888888888888886,337.77777777777777,110" style="stroke: rgb(224, 59, 70);" stroke-dashoffset="0" stroke-dasharray="387.6994323730469 387.6994323730469"></path></g><g class="step"><path d="M0,110Q21.11111111111111,88.88888888888889,42.22222222222222,110" style="stroke: rgb(255, 209, 205);" stroke-dashoffset="0" stroke-dasharray="48.46242141723633 48.46242141723633"></path><path d="M42.22222222222222,110Q21.11111111111111,131.11111111111111,0,110" style="stroke: rgb(232, 89, 91);" stroke-dashoffset="0" stroke-dasharray="48.46244430541992 48.46244430541992"></path></g><g class="step"><path d="M42.22222222222222,110Q105.55555555555554,46.66666666666667,168.88888888888889,110" style="stroke: rgb(255, 209, 205);" stroke-dashoffset="0" stroke-dasharray="145.38726806640625 145.38726806640625"></path><path d="M168.88888888888889,110Q105.55555555555556,173.33333333333331,42.22222222222222,110" style="stroke: rgb(239, 116, 112);" stroke-dashoffset="0" stroke-dasharray="145.38726806640625 145.38726806640625"></path></g><g class="step"><path d="M295.55555555555554,110Q147.77777777777777,257.77777777777777,0,110" style="stroke: rgb(255, 232, 230);" stroke-dashoffset="0" stroke-dasharray="339.2369689941406 339.2369689941406"></path><path d="M0,110Q147.77777777777777,-37.77777777777777,295.55555555555554,110" style="stroke: rgb(232, 89, 91);" stroke-dashoffset="0" stroke-dasharray="339.2369384765625 339.2369384765625"></path></g><g class="step"><path d="M0,110Q21.11111111111111,88.88888888888889,42.22222222222222,110" style="stroke: rgb(255, 232, 230);" stroke-dashoffset="0" stroke-dasharray="48.46242141723633 48.46242141723633"></path><path d="M42.22222222222222,110Q21.11111111111111,131.11111111111111,0,110" style="stroke: rgb(239, 116, 112);" stroke-dashoffset="0" stroke-dasharray="48.46244430541992 48.46244430541992"></path></g><g class="step"><path d="M42.22222222222222,110Q84.44444444444443,67.77777777777779,126.66666666666666,110" style="stroke: rgb(255, 232, 230);" stroke-dashoffset="0" stroke-dasharray="96.92481994628906 96.92481994628906"></path><path d="M126.66666666666666,110Q84.44444444444444,152.22222222222223,42.22222222222222,110" style="stroke: rgb(246, 140, 135);" stroke-dashoffset="0" stroke-dasharray="96.92485046386719 96.92485046386719"></path></g><g class="step"><path d="M253.33333333333331,110Q126.66666666666666,236.66666666666666,0,110" style="stroke: rgb(254, 186, 181);" stroke-dashoffset="0" stroke-dasharray="290.7745056152344 290.7745056152344"></path><path d="M0,110Q126.66666666666666,-16.666666666666657,253.33333333333331,110" style="stroke: rgb(239, 116, 112);" stroke-dashoffset="0" stroke-dasharray="290.7745666503906 290.7745666503906"></path></g><g class="step"><path d="M0,110Q21.11111111111111,88.88888888888889,42.22222222222222,110" style="stroke: rgb(254, 186, 181);" stroke-dashoffset="0" stroke-dasharray="48.46242141723633 48.46242141723633"></path><path d="M42.22222222222222,110Q21.11111111111111,131.11111111111111,0,110" style="stroke: rgb(246, 140, 135);" stroke-dashoffset="0" stroke-dasharray="48.46244430541992 48.46244430541992"></path></g><g class="step"><path d="M211.11111111111111,110Q105.55555555555556,215.55555555555554,0,110" style="stroke: rgb(255, 255, 255);" stroke-dashoffset="0" stroke-dasharray="242.31201171875 242.31201171875"></path><path d="M0,110Q105.55555555555556,4.444444444444443,211.11111111111111,110" style="stroke: rgb(246, 140, 135);" stroke-dashoffset="0" stroke-dasharray="242.3121337890625 242.3121337890625"></path></g><g class="step"><path d="M0,110Q42.22222222222222,67.77777777777777,84.44444444444444,110" style="stroke: rgb(255, 255, 255);" stroke-dashoffset="0" stroke-dasharray="96.92485046386719 96.92485046386719"></path><path d="M84.44444444444444,110Q42.22222222222222,152.22222222222223,0,110" style="stroke: rgb(250, 163, 158);" stroke-dashoffset="0" stroke-dasharray="96.92486572265625 96.92486572265625"></path></g><g class="step"><path d="M168.88888888888889,110Q84.44444444444444,194.44444444444446,0,110" style="stroke: rgb(255, 209, 205);" stroke-dashoffset="0" stroke-dasharray="193.84970092773438 193.84970092773438"></path><path d="M0,110Q84.44444444444444,25.555555555555557,168.88888888888889,110" style="stroke: rgb(250, 163, 158);" stroke-dashoffset="0" stroke-dasharray="193.84974670410156 193.84974670410156"></path></g><g class="step"><path d="M0,110Q21.11111111111111,88.88888888888889,42.22222222222222,110" style="stroke: rgb(255, 209, 205);" stroke-dashoffset="0" stroke-dasharray="48.46242141723633 48.46242141723633"></path><path d="M42.22222222222222,110Q21.11111111111111,131.11111111111111,0,110" style="stroke: rgb(254, 186, 181);" stroke-dashoffset="0" stroke-dasharray="48.46244430541992 48.46244430541992"></path></g><g class="step"><path d="M126.66666666666666,110Q63.33333333333333,173.33333333333331,0,110" style="stroke: rgb(255, 232, 230);" stroke-dashoffset="0" stroke-dasharray="145.3872528076172 145.3872528076172"></path><path d="M0,110Q63.33333333333333,46.66666666666667,126.66666666666666,110" style="stroke: rgb(254, 186, 181);" stroke-dashoffset="0" stroke-dasharray="145.38726806640625 145.38726806640625"></path></g><g class="step"><path d="M0,110Q21.11111111111111,88.88888888888889,42.22222222222222,110" style="stroke: rgb(255, 232, 230);" stroke-dashoffset="0" stroke-dasharray="48.46242141723633 48.46242141723633"></path><path d="M42.22222222222222,110Q21.11111111111111,131.11111111111111,0,110" style="stroke: rgb(255, 209, 205);" stroke-dashoffset="0" stroke-dasharray="48.46244430541992 48.46244430541992"></path></g><g class="step"><path d="M84.44444444444444,110Q42.22222222222222,152.22222222222223,0,110" style="stroke: rgb(255, 255, 255);" stroke-dashoffset="0" stroke-dasharray="96.92486572265625 96.92486572265625"></path><path d="M0,110Q42.22222222222222,67.77777777777777,84.44444444444444,110" style="stroke: rgb(255, 209, 205);" stroke-dashoffset="0" stroke-dasharray="96.92485046386719 96.92485046386719"></path></g><g class="step"><path d="M0,110Q21.11111111111111,88.88888888888889,42.22222222222222,110" style="stroke: rgb(255, 255, 255);" stroke-dashoffset="0" stroke-dasharray="48.46242141723633 48.46242141723633"></path><path d="M42.22222222222222,110Q21.11111111111111,131.11111111111111,0,110" style="stroke: rgb(255, 232, 230);" stroke-dashoffset="0" stroke-dasharray="48.46244430541992 48.46244430541992"></path></g><g class="step"><path d="M42.22222222222222,110Q21.11111111111111,131.11111111111111,0,110" style="stroke: rgb(255, 255, 255);" stroke-dashoffset="0" stroke-dasharray="48.46244430541992 48.46244430541992"></path><path d="M0,110Q21.11111111111111,88.88888888888889,42.22222222222222,110" style="stroke: rgb(255, 232, 230);" stroke-dashoffset="0" stroke-dasharray="48.46242141723633 48.46242141723633"></path></g></g></svg>