<?xml version="1.0" standalone="no"?>
<!DOCTYPE svg PUBLIC "-//W3C//DTD SVG 20010904//EN"
 "http://www.w3.org/TR/2001/REC-SVG-20010904/DTD/svg10.dtd">
<svg version="1.0" xmlns="http://www.w3.org/2000/svg"
 
 preserveAspectRatio="xMidYMid meet">

<g transform="translate(0.000000,615.000000) scale(0.100000,-0.100000)"
fill="#000000" stroke="none">
<path d="M4919 5470 c-53 -28 -121 -110 -91 -110 4 0 17 16 29 35 61 93 230
111 318 34 71 -63 59 -132 -46 -264 -39 -49 -82 -110 -95 -136 -35 -71 -68
-257 -40 -228 2 2 9 39 15 81 14 99 33 140 130 267 83 110 105 158 95 209 -9
45 -68 109 -112 122 -61 16 -162 12 -203 -10z"/>
<path d="M3150 5399 c-107 -11 -327 -75 -409 -119 -11 -5 -34 -12 -50 -14 -75
-8 -244 -182 -225 -230 3 -9 33 -25 65 -37 33 -12 62 -25 64 -30 11 -17 -12
-43 -86 -100 -87 -66 -111 -96 -111 -135 0 -35 29 -62 114 -104 94 -45 95 -57
28 -170 -39 -66 -50 -93 -48 -120 3 -31 8 -36 48 -51 59 -22 67 -37 47 -88
-10 -23 -17 -53 -17 -67 0 -40 95 -183 131 -197 10 -4 0 -17 -34 -47 -26 -23
-59 -63 -74 -88 l-28 -47 3 -283 3 -283 -23 -19 c-13 -11 -70 -49 -128 -86
-249 -158 -327 -212 -373 -256 -27 -27 -53 -48 -57 -48 -4 0 -10 -12 -13 -26
-4 -21 7 -13 62 43 60 61 215 177 261 195 10 4 39 23 65 42 25 20 51 36 55 36
5 0 38 18 72 40 35 22 68 40 74 40 29 0 31 -178 4 -292 -35 -150 -81 -427 -78
-470 3 -40 5 -43 35 -46 17 -2 68 4 113 12 91 18 176 21 184 7 11 -17 -23 -32
-121 -50 -197 -38 -230 -71 -253 -256 -14 -107 -30 -678 -22 -735 5 -27 12
103 20 330 8 206 17 402 21 436 18 133 60 172 221 205 120 24 153 40 148 72
-4 30 -56 33 -174 12 -51 -9 -107 -15 -125 -13 -34 3 -34 4 -31 48 6 100 83
475 101 493 15 15 229 21 316 10 l60 -8 42 -235 c24 -129 70 -343 104 -475
132 -523 179 -840 150 -1009 -17 -95 -48 -172 -87 -216 -47 -52 -43 -63 5 -16
22 22 49 61 61 89 l22 50 53 -6 c61 -6 135 2 135 15 0 5 -42 5 -96 2 l-96 -7
7 23 c13 42 20 204 13 311 -10 136 -65 430 -129 678 -60 232 -91 374 -123 559
l-24 137 56 70 c84 104 185 199 246 231 51 26 56 27 82 14 36 -19 106 -115
154 -210 54 -106 92 -221 166 -495 36 -132 99 -359 139 -505 41 -146 102 -371
137 -500 34 -129 64 -227 66 -218 4 19 -92 390 -187 723 -107 377 -180 665
-241 953 -33 156 -60 289 -60 296 0 8 9 16 21 19 33 9 140 -12 178 -34 18 -11
35 -18 37 -16 2 2 -27 69 -66 150 -38 80 -70 151 -70 157 0 16 35 26 171 49
220 38 436 38 571 1 20 -6 64 -30 98 -53 101 -69 107 -71 55 -22 -94 90 -185
115 -420 115 -159 0 -270 -12 -398 -42 -60 -13 -92 -17 -99 -10 -25 25 -20
105 18 288 36 171 40 184 61 184 12 0 34 10 48 23 23 19 29 36 38 108 10 75
16 91 45 124 36 40 38 58 11 123 -13 32 -12 37 32 120 50 93 63 131 53 156 -3
9 -28 31 -55 51 -44 31 -64 65 -40 65 10 0 61 100 61 118 0 9 -33 32 -127 89
l-22 13 19 42 c11 24 19 52 19 63 0 15 -37 -73 -39 -93 0 -2 -4 0 -10 3 -5 3
-10 1 -10 -4 0 -14 66 -62 118 -85 23 -11 42 -23 42 -28 0 -15 -28 -64 -44
-77 -9 -7 -13 -17 -11 -22 3 -4 -2 -12 -12 -17 -16 -9 -16 -11 0 -36 10 -14
35 -37 57 -51 60 -38 56 -62 -35 -219 l-28 -49 18 -52 c9 -29 14 -61 11 -73
-8 -24 -36 -37 -46 -22 -10 16 -20 -41 -20 -114 0 -38 -7 -74 -18 -96 -15 -31
-21 -35 -52 -33 l-35 2 -58 -277 c-32 -152 -63 -304 -68 -337 -16 -109 -11
-239 17 -372 14 -68 24 -129 22 -135 -2 -6 -24 27 -48 73 -25 45 -57 97 -71
115 -60 76 -208 184 -343 251 l-75 37 -7 73 c-6 71 -5 76 29 146 20 40 39 89
43 110 4 25 16 44 35 58 38 27 38 65 -1 148 -17 35 -29 65 -27 67 12 12 98 14
131 2 66 -22 57 -38 -21 -39 -58 0 -64 -2 -40 -11 31 -11 113 -3 122 13 4 5
18 9 33 9 15 0 34 5 42 10 11 7 6 10 -21 10 -19 0 -57 7 -83 16 -35 12 -67 15
-116 11 -67 -6 -68 -5 -101 30 -79 81 -131 82 -268 3 -50 -29 -95 -50 -99 -46
-12 13 -14 495 -2 581 19 131 69 214 139 230 16 3 35 13 42 21 15 18 9 18 -43
-5 -54 -23 -91 -57 -116 -107 -39 -76 -46 -139 -48 -422 -1 -151 -5 -276 -8
-280 -22 -21 -51 78 -56 193 l-1 20 -9 -20 c-5 -11 -9 -35 -9 -54 -1 -29 -3
-32 -17 -20 -16 13 -16 33 2 145 5 36 3 44 -17 58 -13 9 -31 16 -40 16 -21 0
-49 31 -49 55 0 9 17 43 39 74 96 142 91 174 -35 225 -32 13 -68 36 -78 50
-19 24 -19 28 -3 60 9 19 42 54 74 77 88 65 113 90 113 115 0 27 -9 33 -70 55
-78 27 -64 78 50 177 55 48 86 68 108 69 17 1 42 9 54 16 40 25 239 86 334
102 164 27 244 15 244 -36 0 -12 -13 -51 -30 -89 -16 -38 -30 -71 -30 -75 0
-4 18 9 40 29 22 20 45 36 52 36 6 0 8 3 5 6 -4 4 -18 -1 -32 -10 -30 -20 -31
-12 -5 47 22 50 19 92 -9 106 -25 13 -99 17 -171 10z m-91 -1404 c59 -54 123
-157 129 -210 4 -36 2 -45 -11 -45 -11 0 -19 17 -27 58 -15 72 -35 121 -62
149 -32 35 -41 17 -12 -27 52 -79 69 -204 39 -289 -21 -62 -46 -111 -56 -111
-4 0 3 19 16 43 32 56 40 112 26 193 -14 76 -37 128 -74 163 -40 37 -55 20
-17 -19 44 -45 61 -91 68 -182 4 -69 2 -83 -21 -130 -15 -30 -40 -66 -56 -82
-29 -27 -29 -28 -40 -8 -14 26 -5 50 43 121 30 44 36 62 36 105 0 105 -40 166
-118 182 -47 10 -39 -8 16 -33 59 -27 72 -52 72 -141 0 -64 -2 -69 -45 -124
-53 -68 -70 -74 -61 -20 16 94 19 162 6 177 -18 22 -63 19 -95 -7 -25 -20 -27
-25 -22 -75 4 -35 22 -86 51 -146 64 -132 66 -154 21 -261 -15 -34 19 -12 37
25 22 42 23 112 3 169 -18 52 -19 48 3 46 9 0 22 -13 29 -28 14 -32 46 -37 74
-12 16 14 18 14 27 -3 19 -35 24 -102 11 -140 -6 -20 -31 -65 -55 -100 -48
-70 -54 -92 -57 -211 l-2 -83 -160 0 -160 0 -7 93 c-11 157 -22 681 -14 719
10 54 63 107 176 178 190 118 223 126 289 66z m-164 -257 c3 -13 -1 -56 -9
-97 -8 -41 -12 -80 -9 -87 3 -8 2 -14 -1 -14 -4 0 -19 25 -33 56 -32 70 -35
130 -8 150 28 21 54 17 60 -8z m745 -269 c0 -5 29 -71 65 -146 64 -135 65
-135 37 -129 -15 3 -58 9 -95 12 -67 7 -68 8 -63 33 3 14 8 51 11 81 11 95 27
170 36 164 5 -3 9 -10 9 -15z m-495 -188 c67 -30 205 -118 205 -130 0 -4 -19
-16 -42 -28 -56 -27 -170 -134 -233 -217 l-50 -67 -13 44 c-9 31 -19 47 -34
50 -20 6 -20 11 -16 111 l5 106 54 80 c30 43 55 79 57 80 1 0 32 -13 67 -29z"/>
<path d="M3435 5281 c-68 -34 -61 -42 9 -10 26 11 61 19 79 17 31 -3 32 -4 33
-53 3 -79 15 -101 65 -109 23 -4 44 -4 47 -1 3 3 -4 5 -16 5 -11 0 -24 5 -27
10 -4 6 -10 8 -14 5 -12 -7 -39 26 -42 50 -1 11 1 33 6 49 7 24 4 33 -15 48
-31 25 -55 23 -125 -11z"/>
<path d="M3705 5103 c17 -9 41 -24 54 -34 25 -20 41 -24 41 -11 0 12 -86 62
-106 62 -14 -1 -12 -5 11 -17z"/>
<path d="M3256 4996 c-9 -19 -29 -45 -44 -56 -24 -20 -35 -21 -107 -16 l-80 5
50 -14 c82 -24 106 -20 146 23 76 82 83 92 67 92 -9 0 -23 -15 -32 -34z"/>
<path d="M3310 4993 c0 -39 117 -121 153 -107 8 3 21 -1 29 -9 14 -15 58 -32
58 -24 0 10 -81 47 -102 47 -29 0 -83 35 -113 73 -14 18 -25 27 -25 20z"/>
<path d="M2976 4911 c-29 -32 -14 -39 18 -8 18 17 23 27 14 27 -8 0 -23 -9
-32 -19z"/>
<path d="M2947 4853 c-11 -20 -18 -67 -8 -58 11 11 26 65 18 65 -3 0 -8 -3
-10 -7z"/>
<path d="M3591 4807 c64 -62 99 -222 99 -450 0 -89 5 -169 10 -177 13 -21 13
234 -1 357 -6 53 -19 122 -29 155 -18 57 -80 148 -102 148 -6 0 4 -15 23 -33z"/>
<path d="M3410 4613 c-47 -17 -102 -44 -98 -48 2 -2 28 4 56 15 75 29 159 27
225 -5 l52 -26 -28 25 c-15 14 -44 30 -65 35 -39 11 -116 13 -142 4z"/>
<path d="M4979 4563 c-15 -40 3 -77 34 -67 33 10 47 24 47 48 0 51 -63 65 -81
19z m58 -9 c7 -20 -23 -52 -37 -38 -13 13 -1 54 16 54 8 0 17 -7 21 -16z"/>
<path d="M2831 4555 c-67 -31 -62 -44 5 -14 68 30 174 31 229 2 55 -29 76 -55
90 -110 12 -48 10 -72 -19 -180 -24 -89 -15 -103 67 -102 34 1 49 4 32 6 -83
10 -95 14 -95 33 0 11 11 58 25 106 26 90 25 113 -5 174 -38 76 -103 110 -207
110 -51 0 -81 -6 -122 -25z"/>
<path d="M3390 4443 c0 -16 5 -35 10 -43 7 -11 10 -4 10 28 0 23 -4 42 -10 42
-5 0 -10 -12 -10 -27z"/>
<path d="M2917 4444 c-7 -19 8 -83 17 -73 2 2 0 24 -3 49 -6 36 -8 41 -14 24z"/>
<path d="M3591 3716 c-60 -62 -123 -88 -223 -94 -49 -3 -91 -9 -95 -15 -11
-18 176 1 221 23 49 23 112 74 126 101 15 27 9 24 -29 -15z"/>
<path d="M4640 3364 c0 -6 11 -21 24 -33 13 -13 27 -33 30 -45 3 -12 18 -29
33 -36 16 -8 55 -39 88 -69 33 -31 13 -6 -45 54 -57 61 -109 117 -117 125 -7
8 -13 10 -13 4z"/>
<path d="M4880 3112 c0 -13 283 -277 293 -274 13 4 38 -19 31 -29 -6 -11 14
-49 26 -49 5 0 7 8 3 18 -6 15 -4 15 15 -2 12 -11 22 -27 22 -36 0 -17 357
-304 450 -362 25 -16 133 -62 240 -102 107 -40 236 -91 285 -114 225 -101 297
-131 400 -167 61 -21 114 -42 119 -47 11 -9 9 -13 -115 -402 l-80 -248 -37 6
c-66 10 -596 164 -675 195 -194 77 -633 323 -922 517 -93 62 -178 120 -187
127 -21 17 -47 119 -114 450 -57 287 -72 352 -80 344 -7 -7 101 -539 137 -677
17 -63 61 -209 99 -325 143 -440 234 -750 225 -766 -8 -12 -450 -32 -990 -45
-88 -2 -185 -5 -215 -7 -30 -2 -115 -5 -189 -5 -74 -1 -131 -5 -128 -9 11 -10
396 -4 417 7 10 5 67 9 127 7 99 -2 1369 33 1733 48 104 5 152 4 145 -3 -10
-10 -252 -60 -885 -182 -372 -72 -366 -70 -325 -82 32 -9 1280 -158 1323 -158
84 0 -46 19 -530 75 -660 78 -712 85 -701 95 4 4 42 15 83 24 104 22 1044 203
1104 213 51 8 70 26 40 37 -14 6 -203 1 -796 -20 l-187 -7 -7 29 c-21 88 -106
374 -185 622 -50 156 -89 287 -87 292 2 5 64 -32 138 -81 168 -112 470 -293
655 -393 239 -129 356 -172 843 -306 85 -24 156 -48 158 -54 2 -6 -9 -51 -25
-99 -16 -48 -26 -87 -22 -87 3 0 22 46 40 103 259 801 447 1356 496 1463 39
86 1 76 400 104 160 12 295 22 300 25 21 8 -99 4 -305 -10 -296 -20 -342 -25
-367 -41 -26 -16 -87 -170 -198 -496 -43 -125 -83 -234 -89 -243 -10 -13 -28
-9 -141 29 -71 24 -194 73 -272 109 -191 89 -240 109 -433 179 -179 65 -204
78 -295 148 -245 190 -309 243 -379 317 -43 46 -83 82 -88 81 -5 -2 -66 54
-136 125 -121 123 -162 158 -162 139z"/>
<path d="M8410 2833 c-121 -5 -200 -15 -200 -25 0 -6 13 -8 33 -4 17 3 72 8
120 10 l89 5 -7 -27 c-6 -25 -5 -26 10 -11 9 9 15 25 13 35 -3 16 -11 19 -58
17z"/>
<path d="M7981 2806 c-28 -10 -31 -14 -17 -19 15 -6 86 18 86 29 0 8 -35 2
-69 -10z"/>
<path d="M8088 2803 c18 -2 45 -2 60 0 15 2 0 4 -33 4 -33 0 -45 -2 -27 -4z"/>
<path d="M7795 2791 l-40 -7 38 -7 c26 -6 43 -4 53 4 7 6 21 9 29 5 8 -3 15
-1 15 4 0 11 -31 11 -95 1z"/>
<path d="M7915 2790 c4 -6 11 -8 16 -5 14 9 11 15 -7 15 -8 0 -12 -5 -9 -10z"/>
<path d="M8331 2463 c-146 -422 -349 -990 -422 -1182 -52 -135 -67 -166 -91
-181 -16 -9 -95 -36 -176 -59 -137 -39 -226 -70 -162 -56 14 3 47 10 75 15
108 22 275 81 297 105 22 23 33 25 193 35 114 7 203 7 270 0 152 -15 319 -13
360 4 52 22 48 56 -12 115 -27 25 -57 51 -68 57 -31 18 -10 28 27 14 18 -7 90
-44 159 -82 69 -37 133 -68 142 -68 13 0 17 9 17 36 0 19 -5 44 -10 55 -14 25
-1 25 50 -1 22 -11 51 -20 65 -20 22 0 25 4 25 38 0 33 -8 45 -72 108 -126
123 -242 186 -425 230 -134 32 -183 29 -360 -26 -132 -41 -173 -48 -173 -29 0
6 68 205 151 443 176 501 259 739 259 743 0 2 -4 3 -8 3 -5 0 -55 -134 -111
-297z m244 -858 c61 -14 141 -40 180 -59 81 -40 218 -139 264 -191 30 -34 49
-80 38 -91 -11 -12 -95 36 -167 95 -102 84 -354 208 -324 160 3 -6 23 -18 43
-26 128 -54 321 -221 321 -280 0 -22 -19 -15 -124 46 -169 98 -171 99 -488
117 -165 10 -153 -10 15 -24 72 -7 154 -19 182 -27 84 -26 175 -97 175 -137 0
-35 -43 -41 -230 -32 -238 10 -336 10 -462 0 -64 -5 -108 -5 -108 0 0 5 30 91
67 191 l68 181 40 7 c22 3 101 26 175 50 74 24 155 44 180 44 25 1 95 -10 155
-24z"/>
<path d="M1936 2708 c-85 -130 -87 -313 -5 -638 81 -327 179 -576 290 -745 63
-95 108 -143 234 -248 17 -14 28 -28 25 -30 -3 -3 -270 -8 -595 -11 -755 -8
-1142 -17 -1124 -25 8 -4 406 -3 886 3 l871 9 52 -38 c83 -61 67 -34 -23 37
-133 106 -263 234 -312 308 -94 142 -186 367 -269 665 -56 198 -70 282 -70
440 -1 149 -1 150 32 219 32 69 37 98 8 54z"/>
<path d="M2160 2680 c-11 -7 -4 -10 30 -10 112 0 190 -57 228 -166 16 -46 21
-53 21 -31 2 55 -69 160 -129 192 -35 18 -131 28 -150 15z"/>
<path d="M6242 1219 c6 -17 92 -31 168 -27 51 3 48 4 -40 14 -52 6 -103 14
-114 19 -14 6 -18 5 -14 -6z"/>
<path d="M6208 1213 c7 -3 16 -2 19 1 4 3 -2 6 -13 5 -11 0 -14 -3 -6 -6z"/>
<path d="M6130 1200 c-20 -6 -22 -9 -9 -14 8 -4 29 0 45 9 22 11 24 15 9 14
-11 -1 -31 -4 -45 -9z"/>
<path d="M6058 1183 c6 -2 18 -2 25 0 6 3 1 5 -13 5 -14 0 -19 -2 -12 -5z"/>
<path d="M6380 1130 c0 -5 6 -10 14 -10 8 0 18 5 21 10 3 6 -3 10 -14 10 -12
0 -21 -4 -21 -10z"/>
<path d="M6181 1089 c-25 -5 -49 -14 -55 -20 -8 -9 -5 -10 14 -6 14 3 42 9 63
12 20 4 37 11 37 16 0 10 2 10 -59 -2z"/>
<path d="M5683 981 c-167 -37 -305 -70 -308 -73 -4 -3 22 -11 57 -17 69 -11
483 -67 563 -75 l50 -5 -53 13 c-30 8 -159 29 -288 47 -129 17 -231 35 -227
39 4 4 120 33 256 65 137 31 259 60 270 65 51 21 -30 6 -320 -59z"/>
<path d="M6457 956 c-31 -93 -41 -150 -26 -140 5 3 9 11 7 17 -1 7 11 51 26
99 16 48 26 92 24 98 -2 6 -16 -27 -31 -74z"/>
<path d="M7382 963 c-24 -9 -41 -17 -39 -19 5 -5 107 25 107 31 0 8 -22 4 -68
-12z"/>
<path d="M7273 935 c-18 -8 -33 -16 -33 -19 0 -7 74 15 85 25 14 14 -15 10
-52 -6z"/>
<path d="M2662 918 c44 -37 204 -72 308 -66 80 4 193 39 177 54 -3 3 -27 -4
-52 -15 -61 -27 -212 -29 -300 -5 -33 9 -70 18 -82 19 -12 1 -28 6 -35 12 -28
22 -41 23 -16 1z"/>
<path d="M7160 903 c-109 -19 -456 -110 -448 -118 5 -5 129 24 153 35 11 5 85
23 164 41 162 35 247 62 131 42z"/>
<path d="M6080 810 c0 -5 7 -10 16 -10 8 0 12 5 9 10 -3 6 -10 10 -16 10 -5 0
-9 -4 -9 -10z"/>
<path d="M6400 777 c0 -13 -9 -33 -20 -45 l-21 -22 56 0 c30 0 55 4 55 8 0 5
-13 7 -29 4 -28 -4 -51 20 -31 33 13 8 13 45 0 45 -5 0 -10 -10 -10 -23z"/>
<path d="M6630 770 c-8 -5 -12 -11 -9 -14 2 -3 11 -1 19 4 8 5 12 11 9 14 -2
3 -11 1 -19 -4z"/>
<path d="M6678 773 c7 -3 16 -2 19 1 4 3 -2 6 -13 5 -11 0 -14 -3 -6 -6z"/>
<path d="M6584 755 c-10 -8 -14 -15 -8 -15 6 0 17 7 24 15 16 19 9 19 -16 0z"/>
<path d="M6085 740 c-4 -6 7 -10 27 -10 25 0 29 3 18 10 -19 13 -37 13 -45 0z"/>
<path d="M6160 742 c0 -12 19 -26 26 -19 2 2 -2 10 -11 17 -9 8 -15 8 -15 2z"/>
<path d="M6503 733 c9 -2 23 -2 30 0 6 3 -1 5 -18 5 -16 0 -22 -2 -12 -5z"/>
<path d="M6240 720 c0 -5 8 -10 18 -10 9 0 35 -3 57 -6 27 -3 35 -2 25 4 -23
15 -100 24 -100 12z"/>
</g>
</svg>
